<mxfile host="65bd71144e">
    <diagram id="zCrGKFgxf9hNdtkvRF11" name="Page-1">
        <mxGraphModel dx="2515" dy="161" grid="1" gridSize="10" guides="1" tooltips="1" connect="1" arrows="1" fold="1" page="1" pageScale="1" pageWidth="850" pageHeight="1100" background="#ffffff" math="0" shadow="0">
            <root>
                <mxCell id="0"/>
                <mxCell id="1" parent="0"/>
                <mxCell id="6" value="Signup" style="swimlane;fontStyle=1;align=center;verticalAlign=top;childLayout=stackLayout;horizontal=1;startSize=26;horizontalStack=0;resizeParent=1;resizeParentMax=0;resizeLast=0;collapsible=1;marginBottom=0;labelBackgroundColor=none;labelBorderColor=none;fillStyle=auto;strokeColor=#000000;fontColor=#FFFFFF;fillColor=default;gradientColor=none;" parent="1" vertex="1">
                    <mxGeometry x="-950" y="60" width="300" height="140" as="geometry"/>
                </mxCell>
                <mxCell id="7" value="&lt;span style=&quot;font-family: Helvetica; font-size: 12px; font-style: normal; font-variant-ligatures: normal; font-variant-caps: normal; font-weight: 400; letter-spacing: normal; orphans: 2; text-align: left; text-indent: 0px; text-transform: none; widows: 2; word-spacing: 0px; -webkit-text-stroke-width: 0px; text-decoration-thickness: initial; text-decoration-style: initial; text-decoration-color: initial; float: none; display: inline !important;&quot;&gt;- isUniqueUserName(userName: String): bool&lt;/span&gt;&lt;br style=&quot;border-color: rgb(0, 0, 0); padding: 0px; margin: 0px; font-family: Helvetica; font-size: 12px; font-style: normal; font-variant-ligatures: normal; font-variant-caps: normal; font-weight: 400; letter-spacing: normal; orphans: 2; text-align: left; text-indent: 0px; text-transform: none; widows: 2; word-spacing: 0px; -webkit-text-stroke-width: 0px; text-decoration-thickness: initial; text-decoration-style: initial; text-decoration-color: initial;&quot;&gt;&lt;span style=&quot;font-family: Helvetica; font-size: 12px; font-style: normal; font-variant-ligatures: normal; font-variant-caps: normal; font-weight: 400; letter-spacing: normal; orphans: 2; text-align: left; text-indent: 0px; text-transform: none; widows: 2; word-spacing: 0px; -webkit-text-stroke-width: 0px; text-decoration-thickness: initial; text-decoration-style: initial; text-decoration-color: initial; float: none; display: inline !important;&quot;&gt;- isValidPassword(password: String): bool&lt;/span&gt;&lt;br style=&quot;border-color: rgb(0, 0, 0); padding: 0px; margin: 0px; font-family: Helvetica; font-size: 12px; font-style: normal; font-variant-ligatures: normal; font-variant-caps: normal; font-weight: 400; letter-spacing: normal; orphans: 2; text-align: left; text-indent: 0px; text-transform: none; widows: 2; word-spacing: 0px; -webkit-text-stroke-width: 0px; text-decoration-thickness: initial; text-decoration-style: initial; text-decoration-color: initial;&quot;&gt;&lt;span style=&quot;font-family: Helvetica; font-size: 12px; font-style: normal; font-variant-ligatures: normal; font-variant-caps: normal; font-weight: 400; letter-spacing: normal; orphans: 2; text-align: left; text-indent: 0px; text-transform: none; widows: 2; word-spacing: 0px; -webkit-text-stroke-width: 0px; text-decoration-thickness: initial; text-decoration-style: initial; text-decoration-color: initial; float: none; display: inline !important;&quot;&gt;- saveNewUser(customer: Customer) : void&lt;/span&gt;&lt;br style=&quot;border-color: rgb(0, 0, 0); padding: 0px; margin: 0px; font-family: Helvetica; font-size: 12px; font-style: normal; font-variant-ligatures: normal; font-variant-caps: normal; font-weight: 400; letter-spacing: normal; orphans: 2; text-align: left; text-indent: 0px; text-transform: none; widows: 2; word-spacing: 0px; -webkit-text-stroke-width: 0px; text-decoration-thickness: initial; text-decoration-style: initial; text-decoration-color: initial;&quot;&gt;&lt;span style=&quot;font-family: Helvetica; font-size: 12px; font-style: normal; font-variant-ligatures: normal; font-variant-caps: normal; font-weight: 400; letter-spacing: normal; orphans: 2; text-align: left; text-indent: 0px; text-transform: none; widows: 2; word-spacing: 0px; -webkit-text-stroke-width: 0px; text-decoration-thickness: initial; text-decoration-style: initial; text-decoration-color: initial; float: none; display: inline !important;&quot;&gt;- validOtp(otp: int, userOtp: int): bolean&lt;/span&gt;&lt;br style=&quot;border-color: rgb(0, 0, 0); padding: 0px; margin: 0px; font-family: Helvetica; font-size: 12px; font-style: normal; font-variant-ligatures: normal; font-variant-caps: normal; font-weight: 400; letter-spacing: normal; orphans: 2; text-align: left; text-indent: 0px; text-transform: none; widows: 2; word-spacing: 0px; -webkit-text-stroke-width: 0px; text-decoration-thickness: initial; text-decoration-style: initial; text-decoration-color: initial;&quot;&gt;&lt;span style=&quot;font-family: Helvetica; font-size: 12px; font-style: normal; font-variant-ligatures: normal; font-variant-caps: normal; font-weight: 400; letter-spacing: normal; orphans: 2; text-align: left; text-indent: 0px; text-transform: none; widows: 2; word-spacing: 0px; -webkit-text-stroke-width: 0px; text-decoration-thickness: initial; text-decoration-style: initial; text-decoration-color: initial; float: none; display: inline !important;&quot;&gt;+ register(username:String, password:String,&lt;/span&gt;&lt;br style=&quot;border-color: rgb(0, 0, 0); padding: 0px; margin: 0px; font-family: Helvetica; font-size: 12px; font-style: normal; font-variant-ligatures: normal; font-variant-caps: normal; font-weight: 400; letter-spacing: normal; orphans: 2; text-align: left; text-indent: 0px; text-transform: none; widows: 2; word-spacing: 0px; -webkit-text-stroke-width: 0px; text-decoration-thickness: initial; text-decoration-style: initial; text-decoration-color: initial;&quot;&gt;&lt;span style=&quot;font-family: Helvetica; font-size: 12px; font-style: normal; font-variant-ligatures: normal; font-variant-caps: normal; font-weight: 400; letter-spacing: normal; orphans: 2; text-align: left; text-indent: 0px; text-transform: none; widows: 2; word-spacing: 0px; -webkit-text-stroke-width: 0px; text-decoration-thickness: initial; text-decoration-style: initial; text-decoration-color: initial; float: none; display: inline !important;&quot;&gt;&amp;nbsp; &amp;nbsp; &amp;nbsp; &amp;nbsp; &amp;nbsp; &amp;nbsp; &amp;nbsp; &amp;nbsp; &amp;nbsp;fullname:String, accountype:String,&lt;/span&gt;&lt;br style=&quot;border-color: rgb(0, 0, 0); padding: 0px; margin: 0px; font-family: Helvetica; font-size: 12px; font-style: normal; font-variant-ligatures: normal; font-variant-caps: normal; font-weight: 400; letter-spacing: normal; orphans: 2; text-align: left; text-indent: 0px; text-transform: none; widows: 2; word-spacing: 0px; -webkit-text-stroke-width: 0px; text-decoration-thickness: initial; text-decoration-style: initial; text-decoration-color: initial;&quot;&gt;&lt;span style=&quot;font-family: Helvetica; font-size: 12px; font-style: normal; font-variant-ligatures: normal; font-variant-caps: normal; font-weight: 400; letter-spacing: normal; orphans: 2; text-align: left; text-indent: 0px; text-transform: none; widows: 2; word-spacing: 0px; -webkit-text-stroke-width: 0px; text-decoration-thickness: initial; text-decoration-style: initial; text-decoration-color: initial; float: none; display: inline !important;&quot;&gt;&amp;nbsp;&amp;nbsp;&amp;nbsp;&amp;nbsp;&amp;nbsp;&amp;nbsp;&amp;nbsp;&amp;nbsp;&amp;nbsp;&amp;nbsp;&amp;nbsp;&amp;nbsp;&amp;nbsp;&amp;nbsp;&amp;nbsp;&amp;nbsp;&amp;nbsp;phoneNum:String): bool&lt;/span&gt;" style="text;whiteSpace=wrap;html=1;fontColor=#000000;" parent="6" vertex="1">
                    <mxGeometry y="26" width="300" height="114" as="geometry"/>
                </mxCell>
                <mxCell id="8" value="Login" style="swimlane;fontStyle=1;align=center;verticalAlign=top;childLayout=stackLayout;horizontal=1;startSize=26;horizontalStack=0;resizeParent=1;resizeParentMax=0;resizeLast=0;collapsible=1;marginBottom=0;labelBackgroundColor=none;labelBorderColor=none;strokeColor=#000000;fontColor=#FFFFFF;fillColor=default;gradientColor=none;" parent="1" vertex="1">
                    <mxGeometry x="-960" y="237" width="320" height="56" as="geometry"/>
                </mxCell>
                <mxCell id="H6hMEX80jcX9_PH4wcqr-27" value="&lt;font color=&quot;#000000&quot;&gt;login(username: strign, password: string): Customer&lt;/font&gt;" style="text;html=1;align=center;verticalAlign=middle;resizable=0;points=[];autosize=1;strokeColor=none;fillColor=none;fontColor=#FFFFFF;" parent="8" vertex="1">
                    <mxGeometry y="26" width="320" height="30" as="geometry"/>
                </mxCell>
                <mxCell id="10" value="CustomerModel" style="swimlane;fontStyle=1;align=center;verticalAlign=top;childLayout=stackLayout;horizontal=1;startSize=26;horizontalStack=0;resizeParent=1;resizeParentMax=0;resizeLast=0;collapsible=1;marginBottom=0;strokeColor=#000000;fontColor=#FFFFFF;" parent="1" vertex="1">
                    <mxGeometry x="-1590" y="70" width="290" height="120" as="geometry"/>
                </mxCell>
                <mxCell id="11" value="- customers: Vector&lt;Customer&gt;" style="text;strokeColor=none;fillColor=none;align=left;verticalAlign=top;spacingLeft=4;spacingRight=4;overflow=hidden;rotatable=0;points=[[0,0.5],[1,0.5]];portConstraint=eastwest;fontColor=#000000;" parent="10" vertex="1">
                    <mxGeometry y="26" width="290" height="34" as="geometry"/>
                </mxCell>
                <mxCell id="12" value="+ create(customer: Customer): void&#10;+ read(ID: string): Customer&#10;+ delete(string ID): void" style="text;strokeColor=#181616;fillColor=none;align=left;verticalAlign=top;spacingLeft=4;spacingRight=4;overflow=hidden;rotatable=0;points=[[0,0.5],[1,0.5]];portConstraint=eastwest;fontColor=#000000;" parent="10" vertex="1">
                    <mxGeometry y="60" width="290" height="60" as="geometry"/>
                </mxCell>
                <mxCell id="13" value="MessageHistory" style="swimlane;fontStyle=1;align=center;verticalAlign=top;childLayout=stackLayout;horizontal=1;startSize=26;horizontalStack=0;resizeParent=1;resizeParentMax=0;resizeLast=0;collapsible=1;marginBottom=0;strokeColor=#000000;fontColor=#FFFFFF;" parent="1" vertex="1">
                    <mxGeometry x="-1568" y="990" width="290" height="120" as="geometry"/>
                </mxCell>
                <mxCell id="14" value="- massages: Vector&lt;Massage&gt;" style="text;strokeColor=none;fillColor=none;align=left;verticalAlign=top;spacingLeft=4;spacingRight=4;overflow=hidden;rotatable=0;points=[[0,0.5],[1,0.5]];portConstraint=eastwest;fontColor=#000000;" parent="13" vertex="1">
                    <mxGeometry y="26" width="290" height="34" as="geometry"/>
                </mxCell>
                <mxCell id="15" value="+ create(message: Message): void&#10;+ read(ID: string): Massage&#10;+ delete(string ID): void" style="text;strokeColor=#181616;fillColor=none;align=left;verticalAlign=top;spacingLeft=4;spacingRight=4;overflow=hidden;rotatable=0;points=[[0,0.5],[1,0.5]];portConstraint=eastwest;fontColor=#000000;" parent="13" vertex="1">
                    <mxGeometry y="60" width="290" height="60" as="geometry"/>
                </mxCell>
                <mxCell id="16" value="Stock" style="swimlane;fontStyle=1;align=center;verticalAlign=top;childLayout=stackLayout;horizontal=1;startSize=26;horizontalStack=0;resizeParent=1;resizeParentMax=0;resizeLast=0;collapsible=1;marginBottom=0;strokeColor=#000000;fontColor=#FFFFFF;" parent="1" vertex="1">
                    <mxGeometry x="-1590" y="400" width="350" height="120" as="geometry"/>
                </mxCell>
                <mxCell id="17" value="+ items: Vector&lt;Product&gt;" style="text;strokeColor=none;fillColor=none;align=left;verticalAlign=top;spacingLeft=4;spacingRight=4;overflow=hidden;rotatable=0;points=[[0,0.5],[1,0.5]];portConstraint=eastwest;fontColor=#000000;" parent="16" vertex="1">
                    <mxGeometry y="26" width="350" height="34" as="geometry"/>
                </mxCell>
                <mxCell id="18" value="+ create(product :Product): void&#10;+ read(serialNum: string): Product&#10;+ delete(serialNum: String): void&#10;" style="text;strokeColor=#181616;fillColor=none;align=left;verticalAlign=top;spacingLeft=4;spacingRight=4;overflow=hidden;rotatable=0;points=[[0,0.5],[1,0.5]];portConstraint=eastwest;fontColor=#000000;" parent="16" vertex="1">
                    <mxGeometry y="60" width="350" height="60" as="geometry"/>
                </mxCell>
                <mxCell id="H6hMEX80jcX9_PH4wcqr-24" value="" style="endArrow=open;endFill=1;endSize=12;html=1;labelBackgroundColor=#FFFFFF;strokeColor=#000000;fontColor=#000000;dashed=1;entryX=0.518;entryY=1.076;entryDx=0;entryDy=0;entryPerimeter=0;exitX=-0.013;exitY=0.571;exitDx=0;exitDy=0;exitPerimeter=0;" parent="1" source="H6hMEX80jcX9_PH4wcqr-27" target="12" edge="1">
                    <mxGeometry width="160" relative="1" as="geometry">
                        <mxPoint x="-940" y="293" as="sourcePoint"/>
                        <mxPoint x="-1180" y="290" as="targetPoint"/>
                        <Array as="points">
                            <mxPoint x="-1440" y="280"/>
                        </Array>
                    </mxGeometry>
                </mxCell>
                <mxCell id="H6hMEX80jcX9_PH4wcqr-26" value="use" style="text;html=1;align=center;verticalAlign=middle;resizable=0;points=[];autosize=1;strokeColor=none;fillColor=none;fontColor=#000000;" parent="1" vertex="1">
                    <mxGeometry x="-1240" y="260" width="40" height="30" as="geometry"/>
                </mxCell>
                <mxCell id="H6hMEX80jcX9_PH4wcqr-30" value="" style="endArrow=open;endFill=1;endSize=12;html=1;labelBackgroundColor=#FFFFFF;strokeColor=#000000;fontColor=#000000;dashed=1;entryX=1.008;entryY=0.185;entryDx=0;entryDy=0;entryPerimeter=0;" parent="1" target="12" edge="1">
                    <mxGeometry width="160" relative="1" as="geometry">
                        <mxPoint x="-950" y="141" as="sourcePoint"/>
                        <mxPoint x="-1300" y="141.41" as="targetPoint"/>
                        <Array as="points">
                            <mxPoint x="-1250" y="141.41"/>
                        </Array>
                    </mxGeometry>
                </mxCell>
                <mxCell id="H6hMEX80jcX9_PH4wcqr-31" value="&lt;span style=&quot;font-family: Helvetica; font-size: 12px; font-style: normal; font-variant-ligatures: normal; font-variant-caps: normal; font-weight: 400; letter-spacing: normal; orphans: 2; text-align: center; text-indent: 0px; text-transform: none; widows: 2; word-spacing: 0px; -webkit-text-stroke-width: 0px; text-decoration-thickness: initial; text-decoration-style: initial; text-decoration-color: initial; float: none; display: inline !important;&quot;&gt;use&lt;/span&gt;" style="text;whiteSpace=wrap;html=1;fontColor=#000000;" parent="1" vertex="1">
                    <mxGeometry x="-1160" y="122.5" width="30" height="15" as="geometry"/>
                </mxCell>
                <mxCell id="H6hMEX80jcX9_PH4wcqr-35" value="Customer" style="swimlane;fontStyle=1;align=center;verticalAlign=top;childLayout=stackLayout;horizontal=1;startSize=26;horizontalStack=0;resizeParent=1;resizeParentMax=0;resizeLast=0;collapsible=1;marginBottom=0;strokeColor=#000000;fontColor=#FFFFFF;" parent="1" vertex="1">
                    <mxGeometry x="-219" y="51" width="230" height="300" as="geometry"/>
                </mxCell>
                <mxCell id="H6hMEX80jcX9_PH4wcqr-36" value="- userName: string&#10;- passsword: string&#10;- ID : string&#10;- balance: int&#10;- email: string&#10;- adress: string" style="text;strokeColor=none;fillColor=none;align=left;verticalAlign=top;spacingLeft=4;spacingRight=4;overflow=hidden;rotatable=0;points=[[0,0.5],[1,0.5]];portConstraint=eastwest;fontColor=#000000;labelBackgroundColor=none;" parent="H6hMEX80jcX9_PH4wcqr-35" vertex="1">
                    <mxGeometry y="26" width="230" height="94" as="geometry"/>
                </mxCell>
                <mxCell id="H6hMEX80jcX9_PH4wcqr-37" value="" style="line;strokeWidth=1;fillColor=none;align=left;verticalAlign=middle;spacingTop=-1;spacingLeft=3;spacingRight=3;rotatable=0;labelPosition=right;points=[];portConstraint=eastwest;strokeColor=inherit;fontColor=#000000;" parent="H6hMEX80jcX9_PH4wcqr-35" vertex="1">
                    <mxGeometry y="120" width="230" height="8" as="geometry"/>
                </mxCell>
                <mxCell id="H6hMEX80jcX9_PH4wcqr-38" value="+ getName( ):string&#10;+ setName(name: string): void&#10;+ getPassword( ): string&#10;+ setPassword(password: string): void&#10;+ getID( ): string&#10;+ getBalance( ): int&#10;+ setBalance(balance: int): void&#10;+ getEmail( ): string&#10;+ setEmail(email: string): void&#10;+ getAddress( ): string&#10;+ setAdress(address: string): void " style="text;strokeColor=none;fillColor=none;align=left;verticalAlign=top;spacingLeft=4;spacingRight=4;overflow=hidden;rotatable=0;points=[[0,0.5],[1,0.5]];portConstraint=eastwest;fontColor=#000000;" parent="H6hMEX80jcX9_PH4wcqr-35" vertex="1">
                    <mxGeometry y="128" width="230" height="172" as="geometry"/>
                </mxCell>
                <mxCell id="H6hMEX80jcX9_PH4wcqr-39" value="Product" style="swimlane;fontStyle=1;align=center;verticalAlign=top;childLayout=stackLayout;horizontal=1;startSize=26;horizontalStack=0;resizeParent=1;resizeParentMax=0;resizeLast=0;collapsible=1;marginBottom=0;strokeColor=#000000;" vertex="1" parent="1">
                    <mxGeometry x="360" y="520" width="220" height="290" as="geometry">
                        <mxRectangle x="470" y="300" width="100" height="30" as="alternateBounds"/>
                    </mxGeometry>
                </mxCell>
                <mxCell id="H6hMEX80jcX9_PH4wcqr-40" value="- serialNum: int&#10;- name: string&#10;- vendor: string&#10;- category: string &#10;- price: int &#10;-amount: int" style="text;strokeColor=none;fillColor=none;align=left;verticalAlign=top;spacingLeft=4;spacingRight=4;overflow=hidden;rotatable=0;points=[[0,0.5],[1,0.5]];portConstraint=eastwest;fontColor=#000000;" vertex="1" parent="H6hMEX80jcX9_PH4wcqr-39">
                    <mxGeometry y="26" width="220" height="94" as="geometry"/>
                </mxCell>
                <mxCell id="H6hMEX80jcX9_PH4wcqr-41" value="" style="line;strokeWidth=1;fillColor=none;align=left;verticalAlign=middle;spacingTop=-1;spacingLeft=3;spacingRight=3;rotatable=0;labelPosition=right;points=[];portConstraint=eastwest;strokeColor=inherit;" vertex="1" parent="H6hMEX80jcX9_PH4wcqr-39">
                    <mxGeometry y="120" width="220" height="8" as="geometry"/>
                </mxCell>
                <mxCell id="H6hMEX80jcX9_PH4wcqr-42" value="+ setName(name: string): void&#10;+ setVendor(vendor: string): void&#10;+ setCategory(category: string): void&#10;+ setPrice(price: int): void&#10;+ getSerialNum(): int&#10;+ getName(): string&#10;+ getVendor(): string&#10;+ getCategory(): string&#10;+ getPrice(): int&#10;+getAmount(): int&#10;+setAmount(amount: int) : void" style="text;strokeColor=none;fillColor=none;align=left;verticalAlign=top;spacingLeft=4;spacingRight=4;overflow=hidden;rotatable=0;points=[[0,0.5],[1,0.5]];portConstraint=eastwest;fontColor=#000000;" vertex="1" parent="H6hMEX80jcX9_PH4wcqr-39">
                    <mxGeometry y="128" width="220" height="162" as="geometry"/>
                </mxCell>
                <mxCell id="H6hMEX80jcX9_PH4wcqr-43" value="SimpleOrder" style="swimlane;fontStyle=1;align=center;verticalAlign=top;childLayout=stackLayout;horizontal=1;startSize=26;horizontalStack=0;resizeParent=1;resizeParentMax=0;resizeLast=0;collapsible=1;marginBottom=0;strokeColor=#000000;fillColor=default;fontColor=#FFFFFF;" vertex="1" parent="1">
                    <mxGeometry x="-258" y="687" width="300" height="320" as="geometry">
                        <mxRectangle x="-254" y="684" width="110" height="30" as="alternateBounds"/>
                    </mxGeometry>
                </mxCell>
                <mxCell id="H6hMEX80jcX9_PH4wcqr-44" value="# ID: String&#10;# prductPrice: double&#10;# shipmentFees: double&#10;# cart: Cart&#10;# shipmentAddress: String&#10;# customerID: String" style="text;strokeColor=none;fillColor=none;align=left;verticalAlign=top;spacingLeft=4;spacingRight=4;overflow=hidden;rotatable=0;points=[[0,0.5],[1,0.5]];portConstraint=eastwest;fontColor=#000000;" vertex="1" parent="H6hMEX80jcX9_PH4wcqr-43">
                    <mxGeometry y="26" width="300" height="104" as="geometry"/>
                </mxCell>
                <mxCell id="H6hMEX80jcX9_PH4wcqr-45" value="+ getID( ) : String&#10;+getProductPrice( ): double&#10;+setProductPrice(productPrice: double) : void&#10;+getShipmentFees(): double&#10;+setShipmentFees(shipmentFess: double) : void&#10;+getCart(): Cart&#10;+setCart(cart: Cart): void&#10;+getShipmentAddress(): String&#10;+setShipmentAddress(shipmentAddress: String): void&#10;+getCustomerID( ): String&#10;+setCustomerID(customerID : String) : void&#10;+placeOrder():void&#10;+ship():void" style="text;strokeColor=#000000;fillColor=none;align=left;verticalAlign=top;spacingLeft=4;spacingRight=4;overflow=hidden;rotatable=0;points=[[0,0.5],[1,0.5]];portConstraint=eastwest;fontColor=#000000;" vertex="1" parent="H6hMEX80jcX9_PH4wcqr-43">
                    <mxGeometry y="130" width="300" height="190" as="geometry"/>
                </mxCell>
                <mxCell id="H6hMEX80jcX9_PH4wcqr-46" value="Cart" style="swimlane;fontStyle=1;align=center;verticalAlign=top;childLayout=stackLayout;horizontal=1;startSize=26;horizontalStack=0;resizeParent=1;resizeParentMax=0;resizeLast=0;collapsible=1;marginBottom=0;labelBackgroundColor=none;strokeColor=#000000;fontColor=default;fillColor=default;labelBorderColor=none;" vertex="1" parent="1">
                    <mxGeometry x="370" y="880" width="230" height="140" as="geometry"/>
                </mxCell>
                <mxCell id="H6hMEX80jcX9_PH4wcqr-47" value="- ID: string&#10;- products: List&lt;Product&gt;&#10;" style="text;strokeColor=none;fillColor=none;align=left;verticalAlign=top;spacingLeft=4;spacingRight=4;overflow=hidden;rotatable=0;points=[[0,0.5],[1,0.5]];portConstraint=eastwest;labelBackgroundColor=none;fontColor=#000000;" vertex="1" parent="H6hMEX80jcX9_PH4wcqr-46">
                    <mxGeometry y="26" width="230" height="44" as="geometry"/>
                </mxCell>
                <mxCell id="H6hMEX80jcX9_PH4wcqr-48" value="" style="line;strokeWidth=1;fillColor=none;align=left;verticalAlign=middle;spacingTop=-1;spacingLeft=3;spacingRight=3;rotatable=0;labelPosition=right;points=[];portConstraint=eastwest;strokeColor=inherit;labelBackgroundColor=default;fontColor=#FFFFFF;" vertex="1" parent="H6hMEX80jcX9_PH4wcqr-46">
                    <mxGeometry y="70" width="230" height="8" as="geometry"/>
                </mxCell>
                <object label="+ getID( ): void&#10;+ getProducts( ): List&lt;Product&gt;&#10;+ addProduct(product: Product): void" Get="" id="H6hMEX80jcX9_PH4wcqr-49">
                    <mxCell style="text;strokeColor=none;fillColor=none;align=left;verticalAlign=top;spacingLeft=4;spacingRight=4;overflow=hidden;rotatable=0;points=[[0,0.5],[1,0.5]];portConstraint=eastwest;labelBackgroundColor=none;fontColor=#000000;" vertex="1" parent="H6hMEX80jcX9_PH4wcqr-46">
                        <mxGeometry y="78" width="230" height="62" as="geometry"/>
                    </mxCell>
                </object>
                <mxCell id="H6hMEX80jcX9_PH4wcqr-50" value="" style="endArrow=diamondThin;endFill=1;endSize=24;html=1;dashed=1;labelBackgroundColor=#FFFFFF;strokeColor=#000000;fontColor=#000000;entryX=0.438;entryY=-0.014;entryDx=0;entryDy=0;exitX=0.499;exitY=1;exitDx=0;exitDy=0;exitPerimeter=0;entryPerimeter=0;" edge="1" parent="1" source="H6hMEX80jcX9_PH4wcqr-42" target="H6hMEX80jcX9_PH4wcqr-46">
                    <mxGeometry width="160" relative="1" as="geometry">
                        <mxPoint x="490" y="810" as="sourcePoint"/>
                        <mxPoint x="525" y="860" as="targetPoint"/>
                    </mxGeometry>
                </mxCell>
                <mxCell id="StFQyZ94x38BfXwhMp5b-22" value="" style="edgeStyle=none;html=1;" edge="1" parent="1" source="H6hMEX80jcX9_PH4wcqr-52" target="H6hMEX80jcX9_PH4wcqr-48">
                    <mxGeometry relative="1" as="geometry"/>
                </mxCell>
                <mxCell id="H6hMEX80jcX9_PH4wcqr-52" value="*" style="text;html=1;align=center;verticalAlign=middle;resizable=0;points=[];autosize=1;strokeColor=none;fillColor=none;fontColor=#000000;" vertex="1" parent="1">
                    <mxGeometry x="470" y="805" width="30" height="30" as="geometry"/>
                </mxCell>
                <mxCell id="H6hMEX80jcX9_PH4wcqr-54" value="1" style="text;html=1;align=center;verticalAlign=middle;resizable=0;points=[];autosize=1;strokeColor=none;fillColor=none;fontColor=#000000;" vertex="1" parent="1">
                    <mxGeometry x="470" y="835" width="30" height="30" as="geometry"/>
                </mxCell>
                <mxCell id="StFQyZ94x38BfXwhMp5b-23" value="" style="endArrow=diamondThin;endFill=1;endSize=24;html=1;dashed=1;labelBackgroundColor=#FFFFFF;strokeColor=#000000;fontColor=#000000;entryX=1.003;entryY=0.385;entryDx=0;entryDy=0;entryPerimeter=0;" edge="1" parent="1" target="H6hMEX80jcX9_PH4wcqr-44">
                    <mxGeometry width="160" relative="1" as="geometry">
                        <mxPoint x="370" y="947" as="sourcePoint"/>
                        <mxPoint x="60" y="750" as="targetPoint"/>
                        <Array as="points">
                            <mxPoint x="220" y="947"/>
                            <mxPoint x="220" y="840"/>
                            <mxPoint x="220" y="750"/>
                        </Array>
                    </mxGeometry>
                </mxCell>
                <mxCell id="StFQyZ94x38BfXwhMp5b-24" value="CompoundOrder" style="swimlane;fontStyle=1;align=center;verticalAlign=top;childLayout=stackLayout;horizontal=1;startSize=26;horizontalStack=0;resizeParent=1;resizeParentMax=0;resizeLast=0;collapsible=1;marginBottom=0;strokeColor=#000000;fillColor=default;fontColor=#FFFFFF;" vertex="1" parent="1">
                    <mxGeometry x="-832" y="687" width="307" height="133" as="geometry"/>
                </mxCell>
                <mxCell id="StFQyZ94x38BfXwhMp5b-25" value="#orders:SimpleOrder[]" style="text;strokeColor=none;fillColor=none;align=left;verticalAlign=top;spacingLeft=4;spacingRight=4;overflow=hidden;rotatable=0;points=[[0,0.5],[1,0.5]];portConstraint=eastwest;fontColor=#000000;" vertex="1" parent="StFQyZ94x38BfXwhMp5b-24">
                    <mxGeometry y="26" width="307" height="32" as="geometry"/>
                </mxCell>
                <mxCell id="StFQyZ94x38BfXwhMp5b-26" value="+placeOrder():void&#10;+ship():void" style="text;strokeColor=#000000;fillColor=none;align=left;verticalAlign=top;spacingLeft=4;spacingRight=4;overflow=hidden;rotatable=0;points=[[0,0.5],[1,0.5]];portConstraint=eastwest;fontColor=#000000;" vertex="1" parent="StFQyZ94x38BfXwhMp5b-24">
                    <mxGeometry y="58" width="307" height="75" as="geometry"/>
                </mxCell>
                <mxCell id="H6hMEX80jcX9_PH4wcqr-55" value="1" style="text;html=1;align=center;verticalAlign=middle;resizable=0;points=[];autosize=1;strokeColor=none;fillColor=none;fontColor=#000000;" vertex="1" parent="1">
                    <mxGeometry x="340" y="920" width="30" height="30" as="geometry"/>
                </mxCell>
                <mxCell id="H6hMEX80jcX9_PH4wcqr-56" value="1" style="text;html=1;align=center;verticalAlign=middle;resizable=0;points=[];autosize=1;strokeColor=none;fillColor=none;fontColor=#000000;" vertex="1" parent="1">
                    <mxGeometry x="70" y="720" width="30" height="30" as="geometry"/>
                </mxCell>
                <mxCell id="StFQyZ94x38BfXwhMp5b-27" value="" style="endArrow=diamondThin;endFill=1;endSize=24;html=1;dashed=1;labelBackgroundColor=#FFFFFF;strokeColor=#000000;fontColor=#000000;" edge="1" parent="1">
                    <mxGeometry width="160" relative="1" as="geometry">
                        <mxPoint x="-258" y="728" as="sourcePoint"/>
                        <mxPoint x="-525" y="728" as="targetPoint"/>
                        <Array as="points"/>
                    </mxGeometry>
                </mxCell>
                <mxCell id="StFQyZ94x38BfXwhMp5b-28" value="Order" style="swimlane;fontStyle=1;align=center;verticalAlign=top;childLayout=stackLayout;horizontal=1;startSize=26;horizontalStack=0;resizeParent=1;resizeParentMax=0;resizeLast=0;collapsible=1;marginBottom=0;strokeColor=#000000;fillColor=default;fontColor=#FFFFFF;" vertex="1" parent="1">
                    <mxGeometry x="-565" y="458" width="307" height="101" as="geometry"/>
                </mxCell>
                <mxCell id="StFQyZ94x38BfXwhMp5b-30" value="+placeOrder():void&#10;+ship():void" style="text;strokeColor=#000000;fillColor=none;align=left;verticalAlign=top;spacingLeft=4;spacingRight=4;overflow=hidden;rotatable=0;points=[[0,0.5],[1,0.5]];portConstraint=eastwest;fontColor=#000000;" vertex="1" parent="StFQyZ94x38BfXwhMp5b-28">
                    <mxGeometry y="26" width="307" height="75" as="geometry"/>
                </mxCell>
                <mxCell id="StFQyZ94x38BfXwhMp5b-33" value="&amp;lt;&amp;lt;interface&amp;gt;&amp;gt;" style="text;html=1;align=center;verticalAlign=middle;resizable=0;points=[];autosize=1;strokeColor=none;fillColor=none;fontColor=#030303;" vertex="1" parent="1">
                    <mxGeometry x="-460" y="432" width="92" height="26" as="geometry"/>
                </mxCell>
                <mxCell id="StFQyZ94x38BfXwhMp5b-39" value="" style="endArrow=block;dashed=1;endFill=0;endSize=12;html=1;strokeColor=#000000;entryX=0.479;entryY=0.991;entryDx=0;entryDy=0;entryPerimeter=0;" edge="1" parent="1">
                    <mxGeometry width="160" relative="1" as="geometry">
                        <mxPoint x="-121" y="683" as="sourcePoint"/>
                        <mxPoint x="-417.9470000000001" y="559.005" as="targetPoint"/>
                        <Array as="points">
                            <mxPoint x="-121" y="624.68"/>
                            <mxPoint x="-418" y="624.68"/>
                        </Array>
                    </mxGeometry>
                </mxCell>
                <mxCell id="StFQyZ94x38BfXwhMp5b-42" value="Message" style="swimlane;fontStyle=1;align=center;verticalAlign=top;childLayout=stackLayout;horizontal=1;startSize=26;horizontalStack=0;resizeParent=1;resizeParentMax=0;resizeLast=0;collapsible=1;marginBottom=0;" vertex="1" parent="1">
                    <mxGeometry x="-652" y="1100" width="310" height="270" as="geometry"/>
                </mxCell>
                <mxCell id="StFQyZ94x38BfXwhMp5b-43" value="# content: String&#10;# message: String&#10;#ID : String&#10;#channel: String&#10;#customerID: String&#10;#language:Language" style="text;strokeColor=#000000;fillColor=none;align=left;verticalAlign=top;spacingLeft=4;spacingRight=4;overflow=hidden;rotatable=0;points=[[0,0.5],[1,0.5]];portConstraint=eastwest;fontColor=#000000;" vertex="1" parent="StFQyZ94x38BfXwhMp5b-42">
                    <mxGeometry y="26" width="310" height="92" as="geometry"/>
                </mxCell>
                <mxCell id="StFQyZ94x38BfXwhMp5b-44" value="+ getContent(): String&#10;+ setContent(content: String) : void&#10;+ getMessage(): String&#10;+ setMessage(message: String) : void&#10;+ sendSMS() : void&#10;+ sendEmail() : void&#10;+ getID() : String&#10;+ getChannel(): String&#10;+ getCustomerID() : String&#10;+ translate():void" style="text;strokeColor=#000000;fillColor=none;align=left;verticalAlign=top;spacingLeft=4;spacingRight=4;overflow=hidden;rotatable=0;points=[[0,0.5],[1,0.5]];portConstraint=eastwest;fontColor=#000000;" vertex="1" parent="StFQyZ94x38BfXwhMp5b-42">
                    <mxGeometry y="118" width="310" height="152" as="geometry"/>
                </mxCell>
                <mxCell id="StFQyZ94x38BfXwhMp5b-45" value="NotificationManager" style="swimlane;fontStyle=1;align=center;verticalAlign=top;childLayout=stackLayout;horizontal=1;startSize=26;horizontalStack=0;resizeParent=1;resizeParentMax=0;resizeLast=0;collapsible=1;marginBottom=0;strokeColor=#000000;fontColor=#FFFFFF;" vertex="1" parent="1">
                    <mxGeometry x="-1128" y="1112" width="350" height="130" as="geometry"/>
                </mxCell>
                <mxCell id="StFQyZ94x38BfXwhMp5b-46" value="# notificationQueue: Queue&lt;Message&gt;" style="text;strokeColor=none;fillColor=none;align=left;verticalAlign=top;spacingLeft=4;spacingRight=4;overflow=hidden;rotatable=0;points=[[0,0.5],[1,0.5]];portConstraint=eastwest;fontColor=#000000;" vertex="1" parent="StFQyZ94x38BfXwhMp5b-45">
                    <mxGeometry y="26" width="350" height="26" as="geometry"/>
                </mxCell>
                <mxCell id="StFQyZ94x38BfXwhMp5b-47" value="" style="line;strokeWidth=1;fillColor=none;align=left;verticalAlign=middle;spacingTop=-1;spacingLeft=3;spacingRight=3;rotatable=0;labelPosition=right;points=[];portConstraint=eastwest;strokeColor=inherit;fontColor=#000000;" vertex="1" parent="StFQyZ94x38BfXwhMp5b-45">
                    <mxGeometry y="52" width="350" height="8" as="geometry"/>
                </mxCell>
                <mxCell id="StFQyZ94x38BfXwhMp5b-48" value="+ insert(message : Message): void&#10;+delete(): void&#10;+list(): Queue&lt;Message&gt;" style="text;strokeColor=none;fillColor=none;align=left;verticalAlign=top;spacingLeft=4;spacingRight=4;overflow=hidden;rotatable=0;points=[[0,0.5],[1,0.5]];portConstraint=eastwest;fontColor=#000000;" vertex="1" parent="StFQyZ94x38BfXwhMp5b-45">
                    <mxGeometry y="60" width="350" height="70" as="geometry"/>
                </mxCell>
                <mxCell id="StFQyZ94x38BfXwhMp5b-49" value="" style="endArrow=diamondThin;endFill=1;endSize=24;html=1;dashed=1;labelBackgroundColor=#FFFFFF;strokeColor=#000000;fontColor=#000000;" edge="1" parent="1">
                    <mxGeometry width="160" relative="1" as="geometry">
                        <mxPoint x="-651" y="1159" as="sourcePoint"/>
                        <mxPoint x="-781" y="1159" as="targetPoint"/>
                        <Array as="points"/>
                    </mxGeometry>
                </mxCell>
                <mxCell id="StFQyZ94x38BfXwhMp5b-50" value="" style="endArrow=open;endFill=1;endSize=12;html=1;labelBackgroundColor=#FFFFFF;strokeColor=#000000;fontColor=#000000;dashed=1;exitX=0.25;exitY=0;exitDx=0;exitDy=0;edgeStyle=orthogonalEdgeStyle;" edge="1" parent="1" source="StFQyZ94x38BfXwhMp5b-45">
                    <mxGeometry width="160" relative="1" as="geometry">
                        <mxPoint x="-1113" y="1035" as="sourcePoint"/>
                        <mxPoint x="-1281" y="1037" as="targetPoint"/>
                        <Array as="points">
                            <mxPoint x="-1041" y="1037"/>
                        </Array>
                    </mxGeometry>
                </mxCell>
                <mxCell id="StFQyZ94x38BfXwhMp5b-52" value="*" style="text;html=1;align=center;verticalAlign=middle;resizable=0;points=[];autosize=1;strokeColor=none;fillColor=none;fontColor=#030303;" vertex="1" parent="1">
                    <mxGeometry x="-292" y="699" width="23" height="26" as="geometry"/>
                </mxCell>
                <mxCell id="StFQyZ94x38BfXwhMp5b-53" value="1" style="text;html=1;align=center;verticalAlign=middle;resizable=0;points=[];autosize=1;strokeColor=none;fillColor=none;fontColor=#030303;" vertex="1" parent="1">
                    <mxGeometry x="-520" y="694" width="25" height="26" as="geometry"/>
                </mxCell>
                <mxCell id="StFQyZ94x38BfXwhMp5b-54" value="1" style="text;html=1;align=center;verticalAlign=middle;resizable=0;points=[];autosize=1;strokeColor=none;fillColor=none;fontColor=#030303;" vertex="1" parent="1">
                    <mxGeometry x="-782" y="1132" width="25" height="26" as="geometry"/>
                </mxCell>
                <mxCell id="StFQyZ94x38BfXwhMp5b-55" value="*" style="text;html=1;align=center;verticalAlign=middle;resizable=0;points=[];autosize=1;strokeColor=none;fillColor=none;fontColor=#030303;" vertex="1" parent="1">
                    <mxGeometry x="-671" y="1138" width="23" height="26" as="geometry"/>
                </mxCell>
                <mxCell id="StFQyZ94x38BfXwhMp5b-56" value="Template1" style="swimlane;fontStyle=1;align=center;verticalAlign=top;childLayout=stackLayout;horizontal=1;startSize=26;horizontalStack=0;resizeParent=1;resizeParentMax=0;resizeLast=0;collapsible=1;marginBottom=0;strokeColor=#000000;fillColor=default;fontColor=#FFFFFF;" vertex="1" parent="1">
                    <mxGeometry x="-837" y="1452" width="307" height="101" as="geometry"/>
                </mxCell>
                <mxCell id="StFQyZ94x38BfXwhMp5b-58" value="+setContent():void" style="text;strokeColor=#000000;fillColor=none;align=left;verticalAlign=top;spacingLeft=4;spacingRight=4;overflow=hidden;rotatable=0;points=[[0,0.5],[1,0.5]];portConstraint=eastwest;fontColor=#000000;" vertex="1" parent="StFQyZ94x38BfXwhMp5b-56">
                    <mxGeometry y="26" width="307" height="75" as="geometry"/>
                </mxCell>
                <mxCell id="StFQyZ94x38BfXwhMp5b-59" value="Template2" style="swimlane;fontStyle=1;align=center;verticalAlign=top;childLayout=stackLayout;horizontal=1;startSize=26;horizontalStack=0;resizeParent=1;resizeParentMax=0;resizeLast=0;collapsible=1;marginBottom=0;strokeColor=#000000;fillColor=default;fontColor=#FFFFFF;" vertex="1" parent="1">
                    <mxGeometry x="-465" y="1448" width="307" height="101" as="geometry"/>
                </mxCell>
                <mxCell id="StFQyZ94x38BfXwhMp5b-60" value="+setContent():void" style="text;strokeColor=#000000;fillColor=none;align=left;verticalAlign=top;spacingLeft=4;spacingRight=4;overflow=hidden;rotatable=0;points=[[0,0.5],[1,0.5]];portConstraint=eastwest;fontColor=#000000;" vertex="1" parent="StFQyZ94x38BfXwhMp5b-59">
                    <mxGeometry y="26" width="307" height="75" as="geometry"/>
                </mxCell>
                <mxCell id="27" value="Extends" style="endArrow=block;endSize=16;endFill=0;html=1;strokeColor=#000000;exitX=0.61;exitY=0.007;exitDx=0;exitDy=0;exitPerimeter=0;entryX=0.454;entryY=0.999;entryDx=0;entryDy=0;entryPerimeter=0;" edge="1" parent="1" source="StFQyZ94x38BfXwhMp5b-56" target="StFQyZ94x38BfXwhMp5b-44">
                    <mxGeometry x="-0.04" y="8" width="160" relative="1" as="geometry">
                        <mxPoint x="-611" y="1418" as="sourcePoint"/>
                        <mxPoint x="-485" y="1374" as="targetPoint"/>
                        <Array as="points">
                            <mxPoint x="-650" y="1419"/>
                            <mxPoint x="-510" y="1420"/>
                            <mxPoint x="-510" y="1390"/>
                        </Array>
                        <mxPoint as="offset"/>
                    </mxGeometry>
                </mxCell>
                <mxCell id="StFQyZ94x38BfXwhMp5b-61" value="Extends" style="endArrow=block;endSize=16;endFill=0;html=1;strokeColor=#000000;entryX=0.538;entryY=1.022;entryDx=0;entryDy=0;entryPerimeter=0;" edge="1" parent="1" target="StFQyZ94x38BfXwhMp5b-44">
                    <mxGeometry x="-0.1225" y="-9" width="160" relative="1" as="geometry">
                        <mxPoint x="-318" y="1447" as="sourcePoint"/>
                        <mxPoint x="-490" y="1370" as="targetPoint"/>
                        <Array as="points">
                            <mxPoint x="-318" y="1423"/>
                            <mxPoint x="-485" y="1422.84"/>
                        </Array>
                        <mxPoint as="offset"/>
                    </mxGeometry>
                </mxCell>
                <mxCell id="H6hMEX80jcX9_PH4wcqr-58" value="StockManager" style="swimlane;fontStyle=1;align=center;verticalAlign=top;childLayout=stackLayout;horizontal=1;startSize=26;horizontalStack=0;resizeParent=1;resizeParentMax=0;resizeLast=0;collapsible=1;marginBottom=0;labelBackgroundColor=none;fontColor=#FFFFFF;" vertex="1" parent="1">
                    <mxGeometry x="-1130" y="400" width="370" height="108" as="geometry"/>
                </mxCell>
                <mxCell id="H6hMEX80jcX9_PH4wcqr-59" value="" style="text;strokeColor=#000000;fillColor=none;align=left;verticalAlign=top;spacingLeft=4;spacingRight=4;overflow=hidden;rotatable=0;points=[[0,0.5],[1,0.5]];portConstraint=eastwest;labelBackgroundColor=none;fontColor=#000000;" vertex="1" parent="H6hMEX80jcX9_PH4wcqr-58">
                    <mxGeometry y="26" width="370" height="26" as="geometry"/>
                </mxCell>
                <mxCell id="H6hMEX80jcX9_PH4wcqr-61" value="+ addAmount(serialNum: String, amount: int) : void&#10;+ decrementAmount(SerialNum:String, amount: int): void" style="text;strokeColor=#000000;fillColor=none;align=left;verticalAlign=top;spacingLeft=4;spacingRight=4;overflow=hidden;rotatable=0;points=[[0,0.5],[1,0.5]];portConstraint=eastwest;labelBackgroundColor=none;fontColor=#000000;" vertex="1" parent="H6hMEX80jcX9_PH4wcqr-58">
                    <mxGeometry y="52" width="370" height="48" as="geometry"/>
                </mxCell>
                <mxCell id="H6hMEX80jcX9_PH4wcqr-60" value="" style="line;strokeWidth=1;fillColor=none;align=left;verticalAlign=middle;spacingTop=-1;spacingLeft=3;spacingRight=3;rotatable=0;labelPosition=right;points=[];portConstraint=eastwest;strokeColor=inherit;labelBackgroundColor=none;fontColor=#000000;" vertex="1" parent="H6hMEX80jcX9_PH4wcqr-58">
                    <mxGeometry y="100" width="370" height="8" as="geometry"/>
                </mxCell>
                <mxCell id="StFQyZ94x38BfXwhMp5b-62" value="Language" style="swimlane;fontStyle=1;align=center;verticalAlign=top;childLayout=stackLayout;horizontal=1;startSize=26;horizontalStack=0;resizeParent=1;resizeParentMax=0;resizeLast=0;collapsible=1;marginBottom=0;strokeColor=#000000;fillColor=default;fontColor=#FFFFFF;" vertex="1" parent="1">
                    <mxGeometry x="-101" y="1121" width="307" height="98" as="geometry"/>
                </mxCell>
                <mxCell id="StFQyZ94x38BfXwhMp5b-63" value="+translate(message:string):string" style="text;strokeColor=#000000;fillColor=none;align=left;verticalAlign=top;spacingLeft=4;spacingRight=4;overflow=hidden;rotatable=0;points=[[0,0.5],[1,0.5]];portConstraint=eastwest;fontColor=#000000;" vertex="1" parent="StFQyZ94x38BfXwhMp5b-62">
                    <mxGeometry y="26" width="307" height="72" as="geometry"/>
                </mxCell>
                <mxCell id="StFQyZ94x38BfXwhMp5b-64" value="Spanish" style="swimlane;fontStyle=1;align=center;verticalAlign=top;childLayout=stackLayout;horizontal=1;startSize=26;horizontalStack=0;resizeParent=1;resizeParentMax=0;resizeLast=0;collapsible=1;marginBottom=0;strokeColor=#000000;fillColor=default;fontColor=#FFFFFF;" vertex="1" parent="1">
                    <mxGeometry x="-237" y="1296" width="307" height="98" as="geometry"/>
                </mxCell>
                <mxCell id="StFQyZ94x38BfXwhMp5b-65" value="+ translate(message:string):string" style="text;strokeColor=#000000;fillColor=none;align=left;verticalAlign=top;spacingLeft=4;spacingRight=4;overflow=hidden;rotatable=0;points=[[0,0.5],[1,0.5]];portConstraint=eastwest;fontColor=#000000;" vertex="1" parent="StFQyZ94x38BfXwhMp5b-64">
                    <mxGeometry y="26" width="307" height="72" as="geometry"/>
                </mxCell>
                <mxCell id="StFQyZ94x38BfXwhMp5b-66" value="English" style="swimlane;fontStyle=1;align=center;verticalAlign=top;childLayout=stackLayout;horizontal=1;startSize=26;horizontalStack=0;resizeParent=1;resizeParentMax=0;resizeLast=0;collapsible=1;marginBottom=0;strokeColor=#000000;fillColor=default;fontColor=#FFFFFF;" vertex="1" parent="1">
                    <mxGeometry x="91" y="1293" width="307" height="98" as="geometry"/>
                </mxCell>
                <mxCell id="StFQyZ94x38BfXwhMp5b-67" value="+ translate(message:string):string" style="text;strokeColor=#000000;fillColor=none;align=left;verticalAlign=top;spacingLeft=4;spacingRight=4;overflow=hidden;rotatable=0;points=[[0,0.5],[1,0.5]];portConstraint=eastwest;fontColor=#000000;" vertex="1" parent="StFQyZ94x38BfXwhMp5b-66">
                    <mxGeometry y="26" width="307" height="72" as="geometry"/>
                </mxCell>
                <mxCell id="H6hMEX80jcX9_PH4wcqr-62" value="" style="endArrow=open;endFill=1;endSize=12;html=1;labelBackgroundColor=#FFFFFF;strokeColor=#000000;fontColor=#000000;dashed=1;" edge="1" parent="1">
                    <mxGeometry width="160" relative="1" as="geometry">
                        <mxPoint x="-1130" y="445" as="sourcePoint"/>
                        <mxPoint x="-1240" y="445" as="targetPoint"/>
                        <Array as="points">
                            <mxPoint x="-1218.84" y="444.94"/>
                        </Array>
                    </mxGeometry>
                </mxCell>
                <mxCell id="H6hMEX80jcX9_PH4wcqr-65" value="use" style="text;html=1;align=center;verticalAlign=middle;resizable=0;points=[];autosize=1;strokeColor=none;fillColor=none;fontColor=#000000;" vertex="1" parent="1">
                    <mxGeometry x="-1200" y="420" width="40" height="30" as="geometry"/>
                </mxCell>
                <mxCell id="H6hMEX80jcX9_PH4wcqr-66" value="" style="endArrow=open;endFill=1;endSize=12;html=1;labelBackgroundColor=#FFFFFF;strokeColor=#000000;fontColor=#000000;dashed=1;edgeStyle=orthogonalEdgeStyle;exitX=1.005;exitY=0.187;exitDx=0;exitDy=0;exitPerimeter=0;entryX=0.5;entryY=0;entryDx=0;entryDy=0;" edge="1" parent="1" source="H6hMEX80jcX9_PH4wcqr-58" target="H6hMEX80jcX9_PH4wcqr-39">
                    <mxGeometry width="160" relative="1" as="geometry">
                        <mxPoint x="-852.3199999999999" y="330" as="sourcePoint"/>
                        <mxPoint x="400" y="400" as="targetPoint"/>
                    </mxGeometry>
                </mxCell>
                <mxCell id="StFQyZ94x38BfXwhMp5b-68" value="&amp;lt;&amp;lt;interface&amp;gt;&amp;gt;" style="text;html=1;align=center;verticalAlign=middle;resizable=0;points=[];autosize=1;strokeColor=none;fillColor=none;fontColor=#030303;" vertex="1" parent="1">
                    <mxGeometry x="15" y="1100" width="92" height="26" as="geometry"/>
                </mxCell>
                <mxCell id="StFQyZ94x38BfXwhMp5b-71" value="" style="endArrow=block;dashed=1;endFill=0;endSize=12;html=1;strokeColor=#000000;entryX=0.479;entryY=0.991;entryDx=0;entryDy=0;entryPerimeter=0;exitX=0.48;exitY=0.019;exitDx=0;exitDy=0;exitPerimeter=0;" edge="1" parent="1" source="StFQyZ94x38BfXwhMp5b-66">
                    <mxGeometry width="160" relative="1" as="geometry">
                        <mxPoint x="360" y="1291" as="sourcePoint"/>
                        <mxPoint x="63.052999999999884" y="1219.005" as="targetPoint"/>
                        <Array as="points">
                            <mxPoint x="239" y="1284"/>
                            <mxPoint x="239" y="1268"/>
                            <mxPoint x="63" y="1268"/>
                        </Array>
                    </mxGeometry>
                </mxCell>
                <mxCell id="StFQyZ94x38BfXwhMp5b-72" value="" style="endArrow=block;dashed=1;endFill=0;endSize=12;html=1;strokeColor=#000000;entryX=0.479;entryY=0.991;entryDx=0;entryDy=0;entryPerimeter=0;exitX=0.5;exitY=0;exitDx=0;exitDy=0;" edge="1" parent="1" source="StFQyZ94x38BfXwhMp5b-64">
                    <mxGeometry width="160" relative="1" as="geometry">
                        <mxPoint x="238.36000000000013" y="1296.0020000000002" as="sourcePoint"/>
                        <mxPoint x="63.052999999999884" y="1220.1450000000002" as="targetPoint"/>
                        <Array as="points">
                            <mxPoint x="-83" y="1269"/>
                            <mxPoint x="63" y="1269.14"/>
                        </Array>
                    </mxGeometry>
                </mxCell>
                <mxCell id="H6hMEX80jcX9_PH4wcqr-67" value="use" style="text;html=1;align=center;verticalAlign=middle;resizable=0;points=[];autosize=1;strokeColor=none;fillColor=none;fontColor=#000000;" vertex="1" parent="1">
                    <mxGeometry x="-300.5" y="390" width="40" height="30" as="geometry"/>
                </mxCell>
                <mxCell id="StFQyZ94x38BfXwhMp5b-74" value="Implement" style="text;html=1;align=center;verticalAlign=middle;resizable=0;points=[];autosize=1;strokeColor=none;fillColor=none;fontColor=#000000;" vertex="1" parent="1">
                    <mxGeometry x="-378" y="597" width="80" height="30" as="geometry"/>
                </mxCell>
                <mxCell id="StFQyZ94x38BfXwhMp5b-76" value="Implement" style="text;html=1;align=center;verticalAlign=middle;resizable=0;points=[];autosize=1;strokeColor=none;fillColor=none;fontColor=#000000;" vertex="1" parent="1">
                    <mxGeometry x="-48" y="1252" width="80" height="30" as="geometry"/>
                </mxCell>
                <mxCell id="H6hMEX80jcX9_PH4wcqr-69" value="Implement" style="text;html=1;align=center;verticalAlign=middle;resizable=0;points=[];autosize=1;strokeColor=none;fillColor=none;fontColor=#000000;" vertex="1" parent="1">
                    <mxGeometry x="-565" y="597" width="80" height="30" as="geometry"/>
                </mxCell>
                <mxCell id="H6hMEX80jcX9_PH4wcqr-72" value="Implement" style="text;html=1;align=center;verticalAlign=middle;resizable=0;points=[];autosize=1;strokeColor=none;fillColor=none;fontColor=#000000;" vertex="1" parent="1">
                    <mxGeometry x="91" y="1252" width="80" height="30" as="geometry"/>
                </mxCell>
                <mxCell id="H6hMEX80jcX9_PH4wcqr-70" value="" style="endArrow=none;dashed=1;endFill=0;endSize=12;html=1;strokeColor=#000000;entryX=0.483;entryY=1.018;entryDx=0;entryDy=0;entryPerimeter=0;" edge="1" parent="1" target="StFQyZ94x38BfXwhMp5b-30">
                    <mxGeometry width="160" relative="1" as="geometry">
                        <mxPoint x="-683" y="684.9999999999998" as="sourcePoint"/>
                        <mxPoint x="-520" y="650" as="targetPoint"/>
                        <Array as="points">
                            <mxPoint x="-683" y="624"/>
                            <mxPoint x="-418" y="624"/>
                        </Array>
                    </mxGeometry>
                </mxCell>
                <mxCell id="H6hMEX80jcX9_PH4wcqr-74" value="use" style="text;html=1;align=center;verticalAlign=middle;resizable=0;points=[];autosize=1;strokeColor=none;fillColor=none;fontColor=#000000;" vertex="1" parent="1">
                    <mxGeometry x="-1190" y="1020" width="40" height="30" as="geometry"/>
                </mxCell>
                <mxCell id="StFQyZ94x38BfXwhMp5b-80" value="" style="endArrow=diamondThin;endFill=1;endSize=24;html=1;dashed=1;labelBackgroundColor=#FFFFFF;strokeColor=#000000;fontColor=#000000;" edge="1" parent="1">
                    <mxGeometry width="160" relative="1" as="geometry">
                        <mxPoint x="-103" y="1145" as="sourcePoint"/>
                        <mxPoint x="-345" y="1148" as="targetPoint"/>
                        <Array as="points"/>
                    </mxGeometry>
                </mxCell>
            </root>
        </mxGraphModel>
    </diagram>
</mxfile>